<?xml version="1.0" standalone="no"?>
<!DOCTYPE svg PUBLIC "-//W3C//DTD SVG 20010904//EN"
 "http://www.w3.org/TR/2001/REC-SVG-20010904/DTD/svg10.dtd">
<svg version="1.0" xmlns="http://www.w3.org/2000/svg"
 width="707.000000pt" height="353.000000pt" viewBox="0 0 707.000000 353.000000"
 preserveAspectRatio="xMidYMid meet">

<g transform="translate(0.000000,353.000000) scale(0.100000,-0.100000)"
fill="#000000" stroke="none">
  <!-- Updated Music Symbol -->
  <path d="M5197 2274 c-4 -4 -7 -67 -7 -141 l0 -133 -27 6 c-16 4 -32 13 -36
21 -5 9 -30 13 -76 13 -67 0 -70 -1 -110 -41 -53 -54 -71 -113 -71 -240 0
-179 65 -279 181 -279 35 0 119 36 119 50 0 20 18 9 24 -15 5 -20 13 -25 36
-25 26 0 29 4 35 43 3 23 5 200 3 392 l-3 350 -30 3 c-17 2 -34 0 -38 -4z"
fill="#FF0000" stroke="#880000" stroke-width="20" />

  <!-- Add a treble clef to make the symbol more recognizable -->
  <path d="M5100 1900
    c50 -100, 150 -180, 100 -280
    c-40 -80, -140 -60, -130 -180
    c10 -120, 160 -160, 180 -60
    c20 80, -50 150, 70 280
    c-50 120, -150 120, -220 140z"
    fill="#FFD700" stroke="#FF4500" stroke-width="15" />

  <!-- Optional Musical Notes -->
  <circle cx="5300" cy="2000" r="40" fill="#00BFFF" />
  <rect x="5300" y="2000" width="20" height="100" fill="#00BFFF" />
</g>
</svg>
